<mxfile host="65bd71144e">
    <diagram id="ZLEYI-vzXYFNbGRnPvDq" name="Page-1">
        <mxGraphModel dx="1666" dy="701" grid="1" gridSize="10" guides="1" tooltips="1" connect="1" arrows="1" fold="1" page="1" pageScale="1" pageWidth="1169" pageHeight="827" background="#ffffff" math="0" shadow="0">
            <root>
                <mxCell id="0"/>
                <mxCell id="1" parent="0"/>
                <mxCell id="208" value="{&#xA;  &quot;reg&quot;: [&#xA;    {&quot;bits&quot;: 8,  &quot;name&quot;: &quot;opcode&quot;,    &quot;attr&quot;: &quot;OP&quot;,         &quot;type&quot;: 1},&#xA;    {&quot;bits&quot;: 4,  &quot;name&quot;: &quot;Sh&quot;,       &quot;attr&quot;: &quot;Stride H&quot;,    &quot;type&quot;: 5},&#xA;    {&quot;bits&quot;: 4,  &quot;name&quot;: &quot;Sw&quot;,       &quot;attr&quot;: &quot;Stride W&quot;,    &quot;type&quot;: 5},&#xA;    {&quot;bits&quot;: 4,  &quot;name&quot;: &quot;Ph&quot;,       &quot;attr&quot;: &quot;Padding H&quot;,   &quot;type&quot;: 5},&#xA;    {&quot;bits&quot;: 4,  &quot;name&quot;: &quot;Pw&quot;,       &quot;attr&quot;: &quot;Padding W&quot;,   &quot;type&quot;: 5},&#xA;    {&quot;bits&quot;: 4,  &quot;name&quot;: &quot;Dh&quot;,       &quot;attr&quot;: &quot;Dilation H&quot;,  &quot;type&quot;: 5},&#xA;    {&quot;bits&quot;: 4,  &quot;name&quot;: &quot;Dw&quot;,       &quot;attr&quot;: &quot;Dilation W&quot;,  &quot;type&quot;: 5},    &#xA;    {&quot;bits&quot;: 6,  &quot;name&quot;: &quot;y&quot;,        &quot;attr&quot;: &quot;Sub-Ofmap H&quot;, &quot;type&quot;: 4},&#xA;    {&quot;bits&quot;: 6,  &quot;name&quot;: &quot;x&quot;,        &quot;attr&quot;: &quot;Sub-Ofmap W&quot;, &quot;type&quot;: 4},&#xA;    {&quot;bits&quot;: 6,  &quot;name&quot;: &quot;y'&quot;,       &quot;attr&quot;: &quot;Sub-Ifmap H&quot;, &quot;type&quot;: 4},&#xA;    {&quot;bits&quot;: 6,  &quot;name&quot;: &quot;x'&quot;,       &quot;attr&quot;: &quot;Sub-Ifmap W&quot;, &quot;type&quot;: 4},   &#xA;    {&quot;bits&quot;: 8,  &quot;name&quot;: &quot;Hk&quot;,       &quot;attr&quot;: &quot;Kernel H&quot;,    &quot;type&quot;: 3},&#xA;    {&quot;bits&quot;: 8,  &quot;name&quot;: &quot;Wk&quot;,       &quot;attr&quot;: &quot;Kernel W&quot;,    &quot;type&quot;: 3},&#xA;    {&quot;bits&quot;: 8,  &quot;name&quot;: &quot;Ho&quot;,       &quot;attr&quot;: &quot;Ofmap H&quot;,     &quot;type&quot;: 3},&#xA;    {&quot;bits&quot;: 8,  &quot;name&quot;: &quot;Wo&quot;,       &quot;attr&quot;: &quot;Ofmap W&quot;,     &quot;type&quot;: 3},   &#xA;    {&quot;bits&quot;: 8,  &quot;name&quot;: &quot;Co&quot;,       &quot;attr&quot;: &quot;Out-Channal Num&quot;,    &quot;type&quot;: 2},&#xA;    {&quot;bits&quot;: 8,  &quot;name&quot;: &quot;Ci&quot;,       &quot;attr&quot;: &quot;In-Channal Num&quot;,     &quot;type&quot;: 2},&#xA;    {&quot;bits&quot;: 8,  &quot;name&quot;: &quot;Zs&quot;,       &quot;attr&quot;: &quot;Out-Channals in PE&quot;, &quot;type&quot;: 2}&#xA;], &#xA;  &quot;config&quot;: {&#xA;    &quot;hspace&quot;: 1000,&#xA;    &quot;fontsize&quot;: 14,&#xA;    &quot;bits&quot;: 128,&#xA;    &quot;lanes&quot;:4,&#xA;    &quot;hflip&quot;: false,&#xA;    &quot;vflip&quot;: false,&#xA;    &quot;compact&quot;: false&#xA;  }&#xA;}" style="shadow=0;dashed=0;align=left;strokeWidth=1;labelBackgroundColor=#ffffff;noLabel=1;shape=mxgraph.wavedrom.abstract.bitfield;" vertex="1" parent="1">
                    <mxGeometry x="-520" y="170" width="300" height="75" as="geometry"/>
                </mxCell>
            </root>
        </mxGraphModel>
    </diagram>
</mxfile>